<svg width="30" height="30" viewBox="0 0 30 30" fill="none" xmlns="http://www.w3.org/2000/svg">
<rect width="30" height="30" rx="4" fill="white"/>
<path fill-rule="evenodd" clip-rule="evenodd" d="M12 13.7503C12.9656 13.7503 13.7503 12.9666 13.7503 12V6C13.7503 5.03438 12.9665 4.24968 12 4.24968H5.99995C5.03434 4.24968 4.24963 5.03342 4.24963 6V12C4.24963 12.9656 5.03338 13.7503 5.99995 13.7503H12ZM12 12.2503H5.99995C5.86214 12.2503 5.74963 12.1388 5.74963 12V6C5.74963 5.86219 5.8612 5.74968 5.99995 5.74968H12C12.1378 5.74968 12.2503 5.86124 12.2503 6V12C12.2503 12.1378 12.1387 12.2503 12 12.2503Z" fill="#085E7E"/>
<path fill-rule="evenodd" clip-rule="evenodd" d="M24 13.7503C24.9656 13.7503 25.7503 12.9666 25.7503 12V6C25.7503 5.03438 24.9665 4.24968 24 4.24968H18C17.0343 4.24968 16.2496 5.03342 16.2496 6V12C16.2496 12.9656 17.0334 13.7503 18 13.7503H24ZM24 12.2503H18C17.8621 12.2503 17.7496 12.1388 17.7496 12V6C17.7496 5.86219 17.8612 5.74968 18 5.74968H24C24.1378 5.74968 24.2503 5.86124 24.2503 6V12C24.2503 12.1378 24.1387 12.2503 24 12.2503Z" fill="#5095B6"/>
<path fill-rule="evenodd" clip-rule="evenodd" d="M12 25.7503C12.9656 25.7503 13.7503 24.9666 13.7503 24V18C13.7503 17.0344 12.9665 16.2497 12 16.2497H5.99995C5.03434 16.2497 4.24963 17.0334 4.24963 18V24C4.24963 24.9656 5.03338 25.7503 5.99995 25.7503H12ZM12 24.2503H5.99995C5.86214 24.2503 5.74963 24.1388 5.74963 24V18C5.74963 17.8622 5.8612 17.7497 5.99995 17.7497H12C12.1378 17.7497 12.2503 17.8612 12.2503 18V24C12.2503 24.1378 12.1387 24.2503 12 24.2503Z" fill="#085E7E"/>
<path fill-rule="evenodd" clip-rule="evenodd" d="M21 25.7503C23.6232 25.7503 25.7503 23.6231 25.7503 21C25.7503 18.3769 23.6231 16.2497 21 16.2497C18.3768 16.2497 16.2496 18.3769 16.2496 21C16.2496 23.6231 18.3768 25.7503 21 25.7503ZM21 24.2503C19.2046 24.2503 17.7496 22.7953 17.7496 21C17.7496 19.2047 19.2046 17.7497 21 17.7497C22.7953 17.7497 24.2503 19.2047 24.2503 21C24.2503 22.7953 22.7953 24.2503 21 24.2503Z" fill="#95C11F"/>
</svg>
