<svg width="16" height="16" viewBox="0 0 16 16" fill="none" xmlns="http://www.w3.org/2000/svg">
<path fill-rule="evenodd" clip-rule="evenodd" d="M11.6516 10.5931C13.4844 8.23924 13.3189 4.83375 11.155 2.66986C8.81185 0.326714 5.01286 0.326714 2.66971 2.66986C0.326567 5.01301 0.326567 8.81199 2.66971 11.1551C4.8336 13.319 8.2391 13.4846 10.593 11.6518C10.6031 11.6632 10.6137 11.6745 10.6247 11.6855L13.8066 14.8675C14.0995 15.1603 14.5744 15.1603 14.8673 14.8675C15.1602 14.5746 15.1602 14.0997 14.8673 13.8068L11.6853 10.6248C11.6743 10.6138 11.6631 10.6033 11.6516 10.5931ZM10.0943 3.73052C11.8517 5.48788 11.8517 8.33712 10.0943 10.0945C8.33697 11.8518 5.48773 11.8518 3.73037 10.0945C1.97301 8.33712 1.97301 5.48788 3.73037 3.73052C5.48773 1.97316 8.33697 1.97316 10.0943 3.73052Z" fill="#2C8365"/>
</svg>
