<svg width="16" height="16" viewBox="0 0 16 16" fill="none" xmlns="http://www.w3.org/2000/svg">
<path fill-rule="evenodd" clip-rule="evenodd" d="M3.58624 6.11056H3.79936V5.05555C3.79936 2.75123 5.69504 0.856834 7.99936 0.856834C10.3056 0.856834 12.2006 2.74867 12.2006 5.05555V6.11056H12.4138C13.0481 6.11056 13.5675 6.63056 13.5675 7.26431V13.9912C13.5675 14.6249 13.0481 15.1431 12.4138 15.1431H3.58624C2.95187 15.1431 2.4325 14.6249 2.4325 13.9912V7.26431C2.4325 6.63056 2.95187 6.11056 3.58624 6.11056ZM5.23248 6.11056H10.7669V5.05555C10.7669 3.53056 9.52376 2.28995 7.99936 2.28995C6.88248 2.28995 5.87056 2.97432 5.44192 4.00371C5.30755 4.32559 5.23254 4.68309 5.23254 5.05559L5.23248 6.11056ZM8.00064 8.94992C8.57501 8.94992 9.04064 9.41556 9.04064 9.98992C9.04064 10.4137 8.78814 10.7781 8.42438 10.9405V12.3043H7.57563V10.9405C7.21189 10.7781 6.95938 10.4143 6.95938 9.98992C6.95938 9.41556 7.42502 8.94992 8.00064 8.94992Z" fill="#5095B6"/>
</svg>
